<?xml version="1.0" encoding="utf-8"?>
<!-- Generator: Adobe Illustrator 24.0.1, SVG Export Plug-In . SVG Version: 6.00 Build 0)  -->
<svg version="1.1" id="Lager_1" xmlns="http://www.w3.org/2000/svg" xmlns:xlink="http://www.w3.org/1999/xlink" x="0px" y="0px"
	 viewBox="0 0 17.15 18.45" style="enable-background:new 0 0 17.15 18.45;" xml:space="preserve">
<style type="text/css">
	.st0{fill:#F0CDBA;}
</style>
<path class="st0" d="M7.15,16.36c0-0.46-0.38-0.84-0.84-0.84c-0.05,0-0.1,0-0.15,0.01c-1.1,0.2-2.48,0.23-2.85-0.8
	c-0.32-0.8-0.86-1.51-1.54-2.03c-0.05-0.03-0.1-0.06-0.14-0.09c-0.12-0.32-0.43-0.54-0.78-0.54l0,0c-0.46,0-0.84,0.37-0.84,0.84
	c0,0.68,0.68,1.12,0.96,1.27c0.33,0.33,0.59,0.72,0.77,1.14c0.31,0.86,1.19,2.16,3.75,1.99c0,0.03,0,0.06,0,0.08v0.22
	c-0.02,0.46,0.35,0.85,0.81,0.87c0.46,0.02,0.85-0.35,0.87-0.81c0-0.02,0-0.04,0-0.06v-0.27C7.15,17.19,7.15,16.96,7.15,16.36z
	 M16.09,3.67c0.03-0.1,0.05-0.22,0.08-0.35c0.14-0.93,0.02-1.89-0.34-2.76c-0.09-0.23-0.28-0.41-0.52-0.49
	c-0.3-0.1-1.4-0.3-3.51,1.05c-1.75-0.41-3.58-0.41-5.33,0c-2.1-1.33-3.2-1.15-3.49-1.05C2.74,0.14,2.54,0.32,2.45,0.56
	C2.08,1.45,1.97,2.42,2.11,3.37c0.02,0.11,0.04,0.21,0.07,0.3C1.48,4.6,1.11,5.73,1.12,6.88c0,0.26,0.01,0.52,0.04,0.77
	c-0.01,2.67,1.91,4.96,4.55,5.42c-0.04,0.1-0.07,0.22-0.1,0.34c-0.12,0.45,0.14,0.91,0.59,1.03s0.91-0.14,1.03-0.59
	c0-0.01,0.01-0.03,0.01-0.04c0.05-0.28,0.19-0.54,0.39-0.74c0.35-0.3,0.38-0.83,0.08-1.18c-0.14-0.16-0.33-0.26-0.54-0.28
	c-2.9-0.33-4.15-1.51-4.34-4.11C2.81,7.3,2.8,7.09,2.8,6.88C2.79,6.06,3.06,5.25,3.57,4.6c0.05-0.07,0.11-0.13,0.16-0.19
	C3.95,4.17,4.01,3.84,3.9,3.55C3.84,3.4,3.8,3.24,3.77,3.08C3.7,2.63,3.72,2.17,3.83,1.73c0.73,0.21,1.41,0.54,2.02,0.99
	c0.2,0.14,0.46,0.18,0.69,0.11c1.69-0.46,3.48-0.46,5.18,0c0.24,0.07,0.49,0.02,0.7-0.12c0.61-0.45,1.29-0.79,2.02-1
	c0.11,0.43,0.14,0.88,0.07,1.32c-0.03,0.17-0.08,0.34-0.14,0.51c-0.11,0.29-0.05,0.62,0.16,0.86c0.07,0.07,0.13,0.15,0.19,0.22
	c0.51,0.64,0.78,1.43,0.76,2.24c0,0.22-0.01,0.44-0.03,0.65c-0.18,2.56-1.45,3.74-4.36,4.07c-0.46,0.05-0.79,0.47-0.74,0.93
	c0.02,0.21,0.12,0.4,0.28,0.53c0.21,0.21,0.35,0.47,0.39,0.76c0.06,0.22,0.08,0.46,0.08,0.69v1.96c-0.01,0.54-0.01,0.95-0.01,1.14
	c-0.02,0.46,0.35,0.85,0.81,0.87c0.46,0.02,0.85-0.35,0.87-0.81c0-0.02,0-0.04,0-0.06c0-0.18,0-0.58,0.01-1.12v-1.97
	c0.01-0.37-0.04-0.74-0.13-1.1c-0.03-0.12-0.06-0.23-0.1-0.35c2.63-0.44,4.57-2.72,4.57-5.39c0.03-0.27,0.04-0.53,0.04-0.8
	C17.17,5.72,16.8,4.59,16.09,3.67z"/>
</svg>
